<svg width="1200" height="150" viewBox="0 0 1200 150" fill="none" xmlns="http://www.w3.org/2000/svg">
<rect width="1200" height="150" fill="white"/>
<path fill-rule="evenodd" clip-rule="evenodd" d="M357.701 64.6651C354.009 71.0604 354.009 78.9397 357.701 85.335L373.613 112.895C377.305 119.29 384.129 123.23 391.513 123.23H423.337C430.721 123.23 437.545 119.29 441.237 112.895L457.149 85.335C460.841 78.9397 460.841 71.0604 457.149 64.6651L441.237 37.1052C437.545 30.7099 430.721 26.7703 423.337 26.7703H391.513C384.129 26.7703 377.305 30.7099 373.613 37.1052L357.701 64.6651ZM397.484 35.786C394.738 35.786 392.512 38.0122 392.512 40.7584V43.2446C392.512 44.6177 393.625 45.7308 394.998 45.7308C396.371 45.7308 397.484 46.8439 397.484 48.217V50.7032C397.484 53.4494 395.258 55.6756 392.512 55.6756H382.567C379.821 55.6756 377.594 57.9019 377.594 60.648C377.594 63.3942 375.368 65.6204 372.622 65.6204C369.876 65.6204 367.65 67.8467 367.65 70.5929V75.5653C367.65 81.0576 372.102 85.5101 377.594 85.5101H382.567C385.313 85.5101 387.539 83.2839 387.539 80.5377C387.539 77.7915 389.765 75.5653 392.512 75.5653C395.258 75.5653 397.484 77.7915 397.484 80.5377V83.0239C397.484 84.397 398.597 85.5101 399.97 85.5101C401.343 85.5101 402.456 86.6232 402.456 87.9963C402.456 89.3694 401.343 90.4825 399.97 90.4825C398.597 90.4825 397.484 91.5956 397.484 92.9687V107.886C397.484 109.259 398.597 110.372 399.97 110.372C401.343 110.372 402.456 111.485 402.456 112.858C402.456 114.231 403.57 115.345 404.943 115.345H409.915C411.288 115.345 412.401 114.231 412.401 112.858C412.401 111.485 413.514 110.372 414.887 110.372C416.261 110.372 417.374 109.259 417.374 107.886V92.9687C417.374 91.5956 416.261 90.4825 414.887 90.4825C413.514 90.4825 412.401 89.3694 412.401 87.9963C412.401 86.6232 413.514 85.5101 414.887 85.5101C416.261 85.5101 417.374 84.397 417.374 83.0239V80.5377C417.374 77.7915 419.6 75.5653 422.346 75.5653C425.092 75.5653 427.318 77.7915 427.318 80.5377C427.318 83.2839 429.545 85.5101 432.291 85.5101H437.263C442.756 85.5101 447.208 81.0576 447.208 75.5653V70.5929C447.208 67.8467 444.982 65.6204 442.236 65.6204C439.489 65.6204 437.263 63.3942 437.263 60.648C437.263 57.9019 435.037 55.6756 432.291 55.6756H422.346C419.6 55.6756 417.374 53.4494 417.374 50.7032V48.217C417.374 46.8439 418.487 45.7308 419.86 45.7308C421.233 45.7308 422.346 44.6177 422.346 43.2446V40.7584C422.346 38.0122 420.12 35.786 417.374 35.786C414.627 35.786 412.401 38.0122 412.401 40.7584C412.401 43.5046 410.175 45.7308 407.429 45.7308C404.683 45.7308 402.456 43.5046 402.456 40.7584C402.456 38.0122 400.23 35.786 397.484 35.786Z" fill="black"/>
<path d="M682.812 106.005C679.388 106.005 676.611 103.229 676.611 99.8039V62.598C676.611 52.3239 684.94 43.9951 695.214 43.9951H707.616C711.041 43.9951 713.817 46.7714 713.817 50.1961C713.817 53.6208 716.593 56.3971 720.018 56.3971C723.443 56.3971 726.219 59.1733 726.219 62.598C726.219 66.0227 723.443 68.799 720.018 68.799C716.593 68.799 713.817 71.5753 713.817 75C713.817 78.4247 711.041 81.2009 707.616 81.2009H701.415C694.566 81.2009 689.013 86.7535 689.013 93.6029V99.8039C689.013 103.229 686.237 106.005 682.812 106.005ZM689.013 62.598C689.013 66.0227 691.789 68.799 695.214 68.799H707.12C710.545 68.799 713.321 66.0227 713.321 62.598C713.321 59.1733 710.545 56.3971 707.12 56.3971H695.214C691.789 56.3971 689.013 59.1733 689.013 62.598Z" fill="black"/>
<path d="M636.304 56.3971C632.879 56.3971 630.103 53.6208 630.103 50.1961C630.103 46.7714 632.879 43.9951 636.304 43.9951H661.107C664.532 43.9951 667.308 46.7714 667.308 50.1961C667.308 53.6208 664.532 56.3971 661.107 56.3971H636.304ZM661.107 93.6029C657.683 93.6029 654.906 90.8266 654.906 87.4019C654.906 83.9772 652.13 81.2009 648.705 81.2009H636.304C632.879 81.2009 630.103 78.4247 630.103 75C630.103 71.5753 627.326 68.799 623.902 68.799C620.477 68.799 617.701 66.0227 617.701 62.598C617.701 59.1733 620.477 56.3971 623.902 56.3971C627.326 56.3971 630.103 59.1733 630.103 62.598C630.103 66.0227 632.879 68.799 636.304 68.799H648.705C652.13 68.799 654.906 71.5753 654.906 75C654.906 78.4247 657.683 81.2009 661.107 81.2009C664.532 81.2009 667.308 83.9772 667.308 87.4019C667.308 90.8266 664.532 93.6029 661.107 93.6029ZM623.902 106.005C620.477 106.005 617.701 103.229 617.701 99.8039C617.701 96.3792 620.477 93.6029 623.902 93.6029H648.705C652.13 93.6029 654.906 96.3792 654.906 99.8039C654.906 103.229 652.13 106.005 648.705 106.005H623.902Z" fill="black"/>
<path d="M564.991 106.005C561.566 106.005 558.79 103.229 558.79 99.8039V62.598C558.79 59.1733 561.566 56.3971 564.991 56.3971C568.416 56.3971 571.192 53.6208 571.192 50.1961C571.192 46.7714 573.968 43.9951 577.393 43.9951H589.795C593.22 43.9951 595.996 46.7714 595.996 50.1961C595.996 53.6208 598.772 56.3971 602.197 56.3971C605.621 56.3971 608.398 59.1733 608.398 62.598V99.8039C608.398 103.229 605.621 106.005 602.197 106.005C598.772 106.005 595.996 103.229 595.996 99.8039V93.6029C595.996 86.7535 590.443 81.2009 583.594 81.2009C576.744 81.2009 571.192 86.7535 571.192 93.6029V99.8039C571.192 103.229 568.416 106.005 564.991 106.005ZM571.192 62.8461C571.192 66.1338 573.857 68.799 577.145 68.799H590.043C593.331 68.799 595.996 66.1338 595.996 62.8461C595.996 59.5584 593.331 56.8931 590.043 56.8931H577.145C573.857 56.8931 571.192 59.5584 571.192 62.8461Z" fill="black"/>
<path d="M506.082 106.005C502.658 106.005 499.881 103.229 499.881 99.8039C499.881 96.3792 497.105 93.6029 493.68 93.6029C490.256 93.6029 487.479 90.8266 487.479 87.4019V50.1961C487.479 46.7714 490.256 43.9951 493.68 43.9951C497.105 43.9951 499.881 46.7714 499.881 50.1961V87.4019C499.881 90.8266 502.658 93.6029 506.082 93.6029C509.507 93.6029 512.283 96.3792 512.283 99.8039C512.283 103.229 509.507 106.005 506.082 106.005ZM543.288 93.6029C539.864 93.6029 537.087 90.8266 537.087 87.4019V50.1961C537.087 46.7714 539.864 43.9951 543.288 43.9951C546.713 43.9951 549.489 46.7714 549.489 50.1961V87.4019C549.489 90.8266 546.713 93.6029 543.288 93.6029ZM530.886 106.005C527.462 106.005 524.685 103.229 524.685 99.8039C524.685 96.3792 521.909 93.6029 518.484 93.6029C515.06 93.6029 512.283 90.8266 512.283 87.4019V62.598C512.283 59.1733 515.06 56.3971 518.484 56.3971C521.909 56.3971 524.685 59.1733 524.685 62.598V87.4019C524.685 90.8266 527.462 93.6029 530.886 93.6029C534.311 93.6029 537.087 96.3792 537.087 99.8039C537.087 103.229 534.311 106.005 530.886 106.005Z" fill="black"/>
<path fill-rule="evenodd" clip-rule="evenodd" d="M778.239 45.7177C775.765 45.7177 773.76 47.7228 773.76 50.1962V87.402C773.76 89.8754 775.765 91.8805 778.239 91.8805C780.712 91.8805 782.717 89.8754 782.717 87.402V50.1962C782.717 47.7228 780.712 45.7177 778.239 45.7177ZM770.315 50.1962C770.315 45.8202 773.863 42.2727 778.239 42.2727C782.615 42.2727 786.162 45.8202 786.162 50.1962V87.402C786.162 91.778 782.615 95.3255 778.239 95.3255C773.863 95.3255 770.315 91.778 770.315 87.402V50.1962ZM812.342 45.7177C809.868 45.7177 807.863 47.7228 807.863 50.1962C807.863 52.6696 809.868 54.6746 812.342 54.6746H837.146C839.619 54.6746 841.624 52.6696 841.624 50.1962C841.624 47.7228 839.619 45.7177 837.146 45.7177H812.342ZM804.418 50.1962C804.418 45.8202 807.966 42.2727 812.342 42.2727H837.146C841.522 42.2727 845.069 45.8202 845.069 50.1962C845.069 54.5722 841.522 58.1196 837.146 58.1196H812.342C807.966 58.1196 804.418 54.5722 804.418 50.1962ZM799.94 58.1196C797.467 58.1196 795.461 60.1247 795.461 62.5981C795.461 65.0715 797.467 67.0766 799.94 67.0766C804.316 67.0766 807.863 70.624 807.863 75C807.863 77.4734 809.868 79.4785 812.342 79.4785H824.744C829.12 79.4785 832.667 83.026 832.667 87.402C832.667 89.8754 834.672 91.8805 837.146 91.8805C839.619 91.8805 841.624 89.8754 841.624 87.402C841.624 84.9286 839.619 82.9235 837.146 82.9235C832.77 82.9235 829.222 79.3761 829.222 75.0001C829.222 72.5267 827.217 70.5216 824.744 70.5216H812.342C807.966 70.5216 804.418 66.9741 804.418 62.5981C804.418 60.1247 802.413 58.1196 799.94 58.1196ZM792.016 62.5981C792.016 58.2221 795.564 54.6746 799.94 54.6746C804.316 54.6746 807.863 58.2221 807.863 62.5981C807.863 65.0715 809.868 67.0766 812.342 67.0766H824.744C829.12 67.0766 832.667 70.624 832.667 75.0001C832.667 77.4734 834.672 79.4785 837.146 79.4785C841.522 79.4785 845.069 83.026 845.069 87.402C845.069 91.778 841.522 95.3255 837.146 95.3255C832.77 95.3255 829.222 91.778 829.222 87.402C829.222 84.9286 827.217 82.9235 824.744 82.9235H812.342C807.966 82.9235 804.418 79.3761 804.418 75C804.418 72.5267 802.413 70.5216 799.94 70.5216C795.564 70.5216 792.016 66.9741 792.016 62.5981ZM741.033 82.9235C738.559 82.9235 736.554 84.9286 736.554 87.402C736.554 89.8754 738.559 91.8805 741.033 91.8805C745.409 91.8805 748.956 95.4279 748.956 99.8039C748.956 102.277 750.961 104.282 753.435 104.282H765.837C768.31 104.282 770.315 102.277 770.315 99.8039C770.315 97.3305 768.31 95.3255 765.837 95.3255H753.435C749.059 95.3255 745.511 91.778 745.511 87.402C745.511 84.9286 743.506 82.9235 741.033 82.9235ZM733.109 87.402C733.109 83.026 736.657 79.4785 741.033 79.4785C745.409 79.4785 748.956 83.026 748.956 87.402C748.956 89.8754 750.961 91.8805 753.435 91.8805H765.837C770.213 91.8805 773.76 95.4279 773.76 99.8039C773.76 104.18 770.213 107.727 765.837 107.727H753.435C749.059 107.727 745.511 104.18 745.511 99.8039C745.511 97.3305 743.506 95.3255 741.033 95.3255C736.657 95.3255 733.109 91.778 733.109 87.402ZM799.94 95.3255C797.467 95.3255 795.461 97.3305 795.461 99.8039C795.461 102.277 797.467 104.282 799.94 104.282H824.744C827.217 104.282 829.222 102.277 829.222 99.8039C829.222 97.3305 827.217 95.3255 824.744 95.3255H799.94ZM792.016 99.8039C792.016 95.4279 795.564 91.8805 799.94 91.8805H824.744C829.12 91.8805 832.667 95.4279 832.667 99.8039C832.667 104.18 829.12 107.727 824.744 107.727H799.94C795.564 107.727 792.016 104.18 792.016 99.8039Z" fill="black"/>
</svg>
