<svg width="105" height="97" viewBox="0 0 105 97" fill="none" xmlns="http://www.w3.org/2000/svg">
<path fill-rule="evenodd" clip-rule="evenodd" d="M2.76924 37.8948C-0.923082 44.2901 -0.92308 52.1694 2.76924 58.5647L18.6809 86.1246C22.3733 92.5199 29.197 96.4596 36.5816 96.4596H68.405C75.7897 96.4595 82.6134 92.5199 86.3057 86.1246L102.217 58.5647C105.91 52.1694 105.91 44.2901 102.217 37.8948L86.3057 10.3349C82.6133 3.93966 75.7896 0 68.405 0H36.5816C29.197 0 22.3733 3.93966 18.6809 10.335L2.76924 37.8948ZM42.5524 9.01575C39.8062 9.01575 37.58 11.242 37.58 13.9882V16.4744C37.58 17.8474 38.6931 18.9606 40.0662 18.9606C41.4393 18.9606 42.5524 20.0737 42.5524 21.4468V23.933C42.5524 26.6791 40.3262 28.9054 37.58 28.9054H27.6352C24.889 28.9054 22.6628 31.1316 22.6628 33.8778C22.6628 36.624 20.4365 38.8502 17.6903 38.8502C14.9442 38.8502 12.7179 41.0764 12.7179 43.8226V48.795C12.7179 54.2874 17.1704 58.7398 22.6628 58.7398H27.6352C30.3813 58.7398 32.6076 56.5136 32.6076 53.7674C32.6076 51.0212 34.8338 48.795 37.58 48.795C40.3262 48.795 42.5524 51.0212 42.5524 53.7674V56.2536C42.5524 57.6267 43.6655 58.7398 45.0386 58.7398C46.4117 58.7398 47.5248 59.8529 47.5248 61.226C47.5248 62.5991 46.4117 63.7122 45.0386 63.7122C43.6655 63.7122 42.5524 64.8253 42.5524 66.1984V81.1156C42.5524 82.4887 43.6655 83.6018 45.0386 83.6018C46.4117 83.6018 47.5248 84.715 47.5248 86.088C47.5248 87.4611 48.6379 88.5742 50.011 88.5742H54.9834C56.3565 88.5742 57.4696 87.4611 57.4696 86.088C57.4696 84.715 58.5827 83.6018 59.9558 83.6018C61.3289 83.6018 62.442 82.4887 62.442 81.1156V66.1984C62.442 64.8253 61.3289 63.7122 59.9558 63.7122C58.5827 63.7122 57.4696 62.5991 57.4696 61.226C57.4696 59.8529 58.5827 58.7398 59.9558 58.7398C61.3289 58.7398 62.442 57.6267 62.442 56.2536V53.7674C62.442 51.0212 64.6682 48.795 67.4144 48.795C70.1606 48.795 72.3868 51.0212 72.3868 53.7674C72.3868 56.5136 74.613 58.7398 77.3592 58.7398H82.3316C87.824 58.7398 92.2765 54.2874 92.2765 48.795V43.8226C92.2765 41.0764 90.0502 38.8502 87.304 38.8502C84.5579 38.8502 82.3316 36.624 82.3316 33.8778C82.3316 31.1316 80.1054 28.9054 77.3592 28.9054H67.4144C64.6682 28.9054 62.442 26.6791 62.442 23.933V21.4468C62.442 20.0737 63.5551 18.9606 64.9282 18.9606C66.3013 18.9606 67.4144 17.8474 67.4144 16.4744V13.9882C67.4144 11.242 65.1882 9.01575 62.442 9.01575C59.6958 9.01575 57.4696 11.242 57.4696 13.9882C57.4696 16.7343 55.2434 18.9606 52.4972 18.9606C49.751 18.9606 47.5248 16.7343 47.5248 13.9882C47.5248 11.242 45.2986 9.01575 42.5524 9.01575Z" fill="#D9FF00"/>
</svg>
