<svg width="32" height="32" viewBox="0 0 32 32" fill="none" xmlns="http://www.w3.org/2000/svg">
<path fill-rule="evenodd" clip-rule="evenodd" d="M0.873027 12.8832C-0.291009 14.7981 -0.291009 17.2019 0.873027 19.1168L5.73633 27.1168C6.82469 28.9071 8.76812 30 10.8633 30H21.1364C23.2316 30 25.1751 28.9071 26.2634 27.1168L31.1267 19.1168C32.2908 17.2019 32.2908 14.7981 31.1267 12.8832L26.2634 4.88325C25.1751 3.09292 23.2316 2 21.1364 2H10.8633C8.76812 2 6.82469 3.09292 5.73633 4.88325L0.873027 12.8832ZM12.8849 4.61694C12.0877 4.61694 11.4415 5.26316 11.4415 6.06032V6.74402C11.4415 7.16358 11.7816 7.5037 12.2012 7.5037C12.6207 7.5037 12.9609 7.84381 12.9609 8.26336V8.94704C12.9609 9.74417 12.3147 10.3904 11.5175 10.3904H8.32596C7.52882 10.3904 6.8826 11.0366 6.8826 11.8337C6.8826 12.6309 6.23639 13.2771 5.43924 13.2771H5.36267C4.52324 13.2771 3.84274 13.9576 3.84274 14.797L3.84274 16.1639C3.84274 17.7582 5.13519 19.0506 6.72949 19.0506H8.47764C9.27479 19.0506 9.921 18.4044 9.921 17.6072C9.921 16.8101 10.5672 16.1639 11.3644 16.1639H11.5175C12.3146 16.1639 12.9609 16.8101 12.9609 17.6072V18.2907C12.9609 18.7104 13.3011 19.0506 13.7207 19.0506H13.7588C14.1575 19.0506 14.4806 19.3737 14.4806 19.7724C14.4806 20.171 14.1575 20.4941 13.7588 20.4941H13.7207C13.3011 20.4941 12.9609 20.8343 12.9609 21.254V25.5078C12.9609 25.9274 13.3011 26.2676 13.7207 26.2676H13.7589C14.1575 26.2676 14.4806 26.5907 14.4806 26.9893C14.4806 27.3879 14.8037 27.711 15.2023 27.711H16.7981C17.1966 27.711 17.5197 27.3879 17.5197 26.9893C17.5197 26.5907 17.8428 26.2676 18.2414 26.2676H18.2794C18.699 26.2676 19.0391 25.9275 19.0391 25.508V21.2538C19.0391 20.8343 18.699 20.4941 18.2794 20.4941H18.2415C17.8429 20.4941 17.5197 20.171 17.5197 19.7724C17.5197 19.3737 17.8429 19.0506 18.2415 19.0506H18.2794C18.699 19.0506 19.0391 18.7105 19.0391 18.2909V13.2772V13.2771V8.26403C19.0391 7.84411 19.3795 7.5037 19.7995 7.5037C20.2194 7.5037 20.5598 7.16328 20.5598 6.74336V6.06032C20.5598 5.26316 19.9136 4.61694 19.1164 4.61694H18.964C18.1669 4.61694 17.5207 5.26316 17.5207 6.0603C17.5207 6.85745 16.8745 7.50366 16.0773 7.50366H15.924C15.1269 7.50366 14.4807 6.85745 14.4807 6.0603C14.4807 5.26316 13.8344 4.61694 13.0373 4.61694H12.8849ZM21.927 10.3904C20.3327 10.3904 19.0402 11.6828 19.0402 13.2771V14.6443C19.0402 15.4835 19.7206 16.1639 20.5598 16.1639H20.636C21.4331 16.1639 22.0794 16.8101 22.0794 17.6072C22.0794 18.4044 22.7256 19.0506 23.5227 19.0506H25.2709C26.8652 19.0506 28.1576 17.7582 28.1576 16.1639V14.7967C28.1576 13.9574 27.4773 13.2771 26.638 13.2771H26.5618C25.7647 13.2771 25.1185 12.6309 25.1185 11.8337C25.1185 11.0366 24.4723 10.3904 23.6751 10.3904H21.927Z" fill="#D9FF00"/>
</svg>
