<svg width="1200" height="150" viewBox="0 0 1200 150" fill="none" xmlns="http://www.w3.org/2000/svg">
<g filter="url(#filter0_f_187_247)">
<path fill-rule="evenodd" clip-rule="evenodd" d="M357.769 64.8948C354.077 71.2901 354.077 79.1694 357.769 85.5647L373.681 113.124C377.373 119.52 384.197 123.459 391.582 123.459H423.405C430.79 123.459 437.613 119.52 441.306 113.124L457.217 85.5647C460.91 79.1694 460.91 71.2901 457.217 64.8948L441.306 37.3349C437.613 30.9397 430.79 27 423.405 27H391.582C384.197 27 377.373 30.9397 373.681 37.3349L357.769 64.8948ZM397.552 36.0157C394.806 36.0157 392.58 38.242 392.58 40.9881V43.4743C392.58 44.8474 393.693 45.9605 395.066 45.9605C396.439 45.9605 397.552 47.0736 397.552 48.4467V50.9329C397.552 53.6791 395.326 55.9053 392.58 55.9053H382.635C379.889 55.9053 377.663 58.1316 377.663 60.8777C377.663 63.6239 375.437 65.8501 372.69 65.8501C369.944 65.8501 367.718 68.0764 367.718 70.8225V75.7949C367.718 81.2873 372.17 85.7397 377.663 85.7397H382.635C385.381 85.7397 387.608 83.5135 387.608 80.7673C387.608 78.0212 389.834 75.7949 392.58 75.7949C395.326 75.7949 397.552 78.0212 397.552 80.7673V83.2535C397.552 84.6266 398.665 85.7397 400.039 85.7397C401.412 85.7397 402.525 86.8529 402.525 88.2259C402.525 89.599 401.412 90.7121 400.039 90.7121C398.665 90.7121 397.552 91.8252 397.552 93.1983V108.116C397.552 109.489 398.665 110.602 400.039 110.602C401.412 110.602 402.525 111.715 402.525 113.088C402.525 114.461 403.638 115.574 405.011 115.574H409.983C411.356 115.574 412.47 114.461 412.47 113.088C412.47 111.715 413.583 110.602 414.956 110.602C416.329 110.602 417.442 109.489 417.442 108.116V93.1983C417.442 91.8253 416.329 90.7121 414.956 90.7121C413.583 90.7121 412.47 89.599 412.47 88.2259C412.47 86.8529 413.583 85.7397 414.956 85.7397C416.329 85.7397 417.442 84.6266 417.442 83.2535V80.7673C417.442 78.0212 419.668 75.7949 422.414 75.7949C425.161 75.7949 427.387 78.0212 427.387 80.7673C427.387 83.5135 429.613 85.7397 432.359 85.7397H437.332C442.824 85.7397 447.276 81.2873 447.276 75.7949V70.8225C447.276 68.0764 445.05 65.8501 442.304 65.8501C439.558 65.8501 437.332 63.6239 437.332 60.8777C437.332 58.1316 435.105 55.9053 432.359 55.9053H422.414C419.668 55.9053 417.442 53.6791 417.442 50.9329V48.4467C417.442 47.0736 418.555 45.9605 419.928 45.9605C421.301 45.9605 422.414 44.8474 422.414 43.4743V40.9881C422.414 38.242 420.188 36.0157 417.442 36.0157C414.696 36.0157 412.47 38.242 412.47 40.9881C412.47 43.7343 410.243 45.9605 407.497 45.9605C404.751 45.9605 402.525 43.7343 402.525 40.9881C402.525 38.242 400.299 36.0157 397.552 36.0157Z" fill="black" fill-opacity="0.5"/>
<path d="M682.88 106.235C679.456 106.235 676.679 103.458 676.679 100.034V62.8279C676.679 52.5538 685.008 44.225 695.282 44.225H707.684C711.109 44.225 713.885 47.0012 713.885 50.4259C713.885 53.8506 716.661 56.6269 720.086 56.6269C723.511 56.6269 726.287 59.4032 726.287 62.8279C726.287 66.2526 723.511 69.0288 720.086 69.0288C716.661 69.0288 713.885 71.8051 713.885 75.2298C713.885 78.6545 711.109 81.4308 707.684 81.4308H701.483C694.634 81.4308 689.081 86.9833 689.081 93.8327V100.034C689.081 103.458 686.305 106.235 682.88 106.235ZM689.081 62.8279C689.081 66.2526 691.858 69.0288 695.282 69.0288H707.188C710.613 69.0288 713.389 66.2526 713.389 62.8279C713.389 59.4032 710.613 56.6269 707.188 56.6269H695.282C691.858 56.6269 689.081 59.4032 689.081 62.8279Z" fill="black" fill-opacity="0.5"/>
<path d="M636.372 56.6269C632.947 56.6269 630.171 53.8506 630.171 50.4259C630.171 47.0012 632.947 44.225 636.372 44.225H661.176C664.6 44.225 667.377 47.0012 667.377 50.4259C667.377 53.8506 664.6 56.6269 661.176 56.6269H636.372ZM661.176 93.8327C657.751 93.8327 654.975 91.0564 654.975 87.6317C654.975 84.207 652.198 81.4308 648.774 81.4308H636.372C632.947 81.4308 630.171 78.6545 630.171 75.2298C630.171 71.8051 627.394 69.0288 623.97 69.0288C620.545 69.0288 617.769 66.2526 617.769 62.8279C617.769 59.4032 620.545 56.6269 623.97 56.6269C627.394 56.6269 630.171 59.4032 630.171 62.8279C630.171 66.2526 632.947 69.0288 636.372 69.0288H648.774C652.198 69.0288 654.975 71.8051 654.975 75.2298C654.975 78.6545 657.751 81.4308 661.176 81.4308C664.6 81.4308 667.377 84.207 667.377 87.6317C667.377 91.0564 664.6 93.8327 661.176 93.8327ZM623.97 106.235C620.545 106.235 617.769 103.458 617.769 100.034C617.769 96.609 620.545 93.8327 623.97 93.8327H648.774C652.198 93.8327 654.975 96.609 654.975 100.034C654.975 103.458 652.198 106.235 648.774 106.235H623.97Z" fill="black" fill-opacity="0.5"/>
<path d="M565.059 106.235C561.634 106.235 558.858 103.458 558.858 100.034V62.8279C558.858 59.4032 561.634 56.6269 565.059 56.6269C568.484 56.6269 571.26 53.8506 571.26 50.4259C571.26 47.0012 574.036 44.225 577.461 44.225H589.863C593.288 44.225 596.064 47.0012 596.064 50.4259C596.064 53.8506 598.84 56.6269 602.265 56.6269C605.69 56.6269 608.466 59.4032 608.466 62.8279V100.034C608.466 103.458 605.69 106.235 602.265 106.235C598.84 106.235 596.064 103.458 596.064 100.034V93.8327C596.064 86.9833 590.511 81.4308 583.662 81.4308C576.813 81.4308 571.26 86.9833 571.26 93.8327V100.034C571.26 103.458 568.484 106.235 565.059 106.235ZM571.26 63.0759C571.26 66.3636 573.925 69.0288 577.213 69.0288H590.111C593.399 69.0288 596.064 66.3636 596.064 63.0759C596.064 59.7882 593.399 57.123 590.111 57.123H577.213C573.925 57.123 571.26 59.7882 571.26 63.0759Z" fill="black" fill-opacity="0.5"/>
<path d="M506.151 106.235C502.726 106.235 499.95 103.458 499.95 100.034C499.95 96.609 497.174 93.8327 493.749 93.8327C490.324 93.8327 487.548 91.0564 487.548 87.6317V50.4259C487.548 47.0012 490.324 44.225 493.749 44.225C497.174 44.225 499.95 47.0012 499.95 50.4259V87.6317C499.95 91.0564 502.726 93.8327 506.151 93.8327C509.575 93.8327 512.352 96.609 512.352 100.034C512.352 103.458 509.575 106.235 506.151 106.235ZM543.357 93.8327C539.932 93.8327 537.156 91.0564 537.156 87.6317V50.4259C537.156 47.0012 539.932 44.225 543.357 44.225C546.781 44.225 549.557 47.0012 549.557 50.4259V87.6317C549.557 91.0564 546.781 93.8327 543.357 93.8327ZM530.955 106.235C527.53 106.235 524.754 103.458 524.754 100.034C524.754 96.609 521.977 93.8327 518.553 93.8327C515.128 93.8327 512.352 91.0564 512.352 87.6317V62.8279C512.352 59.4032 515.128 56.6269 518.553 56.6269C521.977 56.6269 524.754 59.4032 524.754 62.8279V87.6317C524.754 91.0564 527.53 93.8327 530.955 93.8327C534.379 93.8327 537.156 96.609 537.156 100.034C537.156 103.458 534.379 106.235 530.955 106.235Z" fill="black" fill-opacity="0.5"/>
<path fill-rule="evenodd" clip-rule="evenodd" d="M778.307 45.9474C775.834 45.9474 773.828 47.9525 773.828 50.4259V87.6317C773.828 90.1051 775.834 92.1102 778.307 92.1102C780.78 92.1102 782.785 90.1051 782.785 87.6317V50.4259C782.785 47.9525 780.78 45.9474 778.307 45.9474ZM770.384 50.4259C770.384 46.0499 773.931 42.5024 778.307 42.5024C782.683 42.5024 786.23 46.0499 786.23 50.4259V87.6317C786.23 92.0077 782.683 95.5551 778.307 95.5551C773.931 95.5551 770.384 92.0077 770.384 87.6317V50.4259ZM812.41 45.9474C809.937 45.9474 807.932 47.9525 807.932 50.4259C807.932 52.8993 809.937 54.9044 812.41 54.9044H837.214C839.687 54.9044 841.692 52.8993 841.692 50.4259C841.692 47.9525 839.687 45.9474 837.214 45.9474H812.41ZM804.487 50.4259C804.487 46.0499 808.034 42.5024 812.41 42.5024H837.214C841.59 42.5024 845.137 46.0499 845.137 50.4259C845.137 54.8019 841.59 58.3494 837.214 58.3494H812.41C808.034 58.3494 804.487 54.8019 804.487 50.4259ZM800.008 58.3494C797.535 58.3494 795.53 60.3544 795.53 62.8278C795.53 65.3012 797.535 67.3063 800.008 67.3063C804.384 67.3063 807.932 70.8537 807.932 75.2297C807.932 77.7031 809.937 79.7082 812.41 79.7082H824.812C829.188 79.7082 832.736 83.2557 832.736 87.6317C832.736 90.1051 834.741 92.1102 837.214 92.1102C839.687 92.1102 841.692 90.1051 841.692 87.6317C841.692 85.1583 839.687 83.1532 837.214 83.1532C832.838 83.1532 829.291 79.6058 829.291 75.2298C829.291 72.7564 827.285 70.7513 824.812 70.7513H812.41C808.034 70.7513 804.487 67.2038 804.487 62.8278C804.487 60.3544 802.482 58.3494 800.008 58.3494ZM792.085 62.8278C792.085 58.4518 795.632 54.9044 800.008 54.9044C804.384 54.9044 807.932 58.4518 807.932 62.8278C807.932 65.3012 809.937 67.3063 812.41 67.3063H824.812C829.188 67.3063 832.736 70.8537 832.736 75.2298C832.736 77.7031 834.741 79.7082 837.214 79.7082C841.59 79.7082 845.137 83.2557 845.137 87.6317C845.137 92.0077 841.59 95.5551 837.214 95.5551C832.838 95.5551 829.291 92.0077 829.291 87.6317C829.291 85.1583 827.285 83.1532 824.812 83.1532H812.41C808.034 83.1532 804.487 79.6057 804.487 75.2297C804.487 72.7564 802.482 70.7513 800.008 70.7513C795.632 70.7513 792.085 67.2038 792.085 62.8278ZM741.101 83.1532C738.628 83.1532 736.623 85.1583 736.623 87.6317C736.623 90.1051 738.628 92.1102 741.101 92.1102C745.477 92.1102 749.025 95.6576 749.025 100.034C749.025 102.507 751.03 104.512 753.503 104.512H765.905C768.378 104.512 770.384 102.507 770.384 100.034C770.384 97.5602 768.378 95.5551 765.905 95.5551H753.503C749.127 95.5551 745.58 92.0077 745.58 87.6317C745.58 85.1583 743.575 83.1532 741.101 83.1532ZM733.178 87.6317C733.178 83.2557 736.725 79.7082 741.101 79.7082C745.477 79.7082 749.025 83.2557 749.025 87.6317C749.025 90.1051 751.03 92.1102 753.503 92.1102H765.905C770.281 92.1102 773.828 95.6576 773.828 100.034C773.828 104.41 770.281 107.957 765.905 107.957H753.503C749.127 107.957 745.58 104.41 745.58 100.034C745.58 97.5602 743.575 95.5551 741.101 95.5551C736.725 95.5551 733.178 92.0077 733.178 87.6317ZM800.008 95.5551C797.535 95.5551 795.53 97.5602 795.53 100.034C795.53 102.507 797.535 104.512 800.008 104.512H824.812C827.285 104.512 829.291 102.507 829.291 100.034C829.291 97.5602 827.285 95.5551 824.812 95.5551H800.008ZM792.085 100.034C792.085 95.6576 795.632 92.1102 800.008 92.1102H824.812C829.188 92.1102 832.736 95.6576 832.736 100.034C832.736 104.41 829.188 107.957 824.812 107.957H800.008C795.632 107.957 792.085 104.41 792.085 100.034Z" fill="black" fill-opacity="0.5"/>
</g>
<g filter="url(#filter1_f_187_247)">
<path fill-rule="evenodd" clip-rule="evenodd" d="M357.769 64.8948C354.077 71.2901 354.077 79.1694 357.769 85.5647L373.681 113.124C377.373 119.52 384.197 123.459 391.582 123.459H423.405C430.79 123.459 437.613 119.52 441.306 113.124L457.217 85.5647C460.91 79.1694 460.91 71.2901 457.217 64.8948L441.306 37.3349C437.613 30.9397 430.79 27 423.405 27H391.582C384.197 27 377.373 30.9397 373.681 37.3349L357.769 64.8948ZM397.552 36.0157C394.806 36.0157 392.58 38.242 392.58 40.9881V43.4743C392.58 44.8474 393.693 45.9605 395.066 45.9605C396.439 45.9605 397.552 47.0736 397.552 48.4467V50.9329C397.552 53.6791 395.326 55.9053 392.58 55.9053H382.635C379.889 55.9053 377.663 58.1316 377.663 60.8777C377.663 63.6239 375.437 65.8501 372.69 65.8501C369.944 65.8501 367.718 68.0764 367.718 70.8225V75.7949C367.718 81.2873 372.17 85.7397 377.663 85.7397H382.635C385.381 85.7397 387.608 83.5135 387.608 80.7673C387.608 78.0212 389.834 75.7949 392.58 75.7949C395.326 75.7949 397.552 78.0212 397.552 80.7673V83.2535C397.552 84.6266 398.665 85.7397 400.039 85.7397C401.412 85.7397 402.525 86.8529 402.525 88.2259C402.525 89.599 401.412 90.7121 400.039 90.7121C398.665 90.7121 397.552 91.8252 397.552 93.1983V108.116C397.552 109.489 398.665 110.602 400.039 110.602C401.412 110.602 402.525 111.715 402.525 113.088C402.525 114.461 403.638 115.574 405.011 115.574H409.983C411.356 115.574 412.47 114.461 412.47 113.088C412.47 111.715 413.583 110.602 414.956 110.602C416.329 110.602 417.442 109.489 417.442 108.116V93.1983C417.442 91.8253 416.329 90.7121 414.956 90.7121C413.583 90.7121 412.47 89.599 412.47 88.2259C412.47 86.8529 413.583 85.7397 414.956 85.7397C416.329 85.7397 417.442 84.6266 417.442 83.2535V80.7673C417.442 78.0212 419.668 75.7949 422.414 75.7949C425.161 75.7949 427.387 78.0212 427.387 80.7673C427.387 83.5135 429.613 85.7397 432.359 85.7397H437.332C442.824 85.7397 447.276 81.2873 447.276 75.7949V70.8225C447.276 68.0764 445.05 65.8501 442.304 65.8501C439.558 65.8501 437.332 63.6239 437.332 60.8777C437.332 58.1316 435.105 55.9053 432.359 55.9053H422.414C419.668 55.9053 417.442 53.6791 417.442 50.9329V48.4467C417.442 47.0736 418.555 45.9605 419.928 45.9605C421.301 45.9605 422.414 44.8474 422.414 43.4743V40.9881C422.414 38.242 420.188 36.0157 417.442 36.0157C414.696 36.0157 412.47 38.242 412.47 40.9881C412.47 43.7343 410.243 45.9605 407.497 45.9605C404.751 45.9605 402.525 43.7343 402.525 40.9881C402.525 38.242 400.299 36.0157 397.552 36.0157Z" fill="url(#paint0_radial_187_247)"/>
<path d="M682.88 106.235C679.456 106.235 676.679 103.458 676.679 100.034V62.8279C676.679 52.5538 685.008 44.225 695.282 44.225H707.684C711.109 44.225 713.885 47.0012 713.885 50.4259C713.885 53.8506 716.661 56.6269 720.086 56.6269C723.511 56.6269 726.287 59.4032 726.287 62.8279C726.287 66.2526 723.511 69.0288 720.086 69.0288C716.661 69.0288 713.885 71.8051 713.885 75.2298C713.885 78.6545 711.109 81.4308 707.684 81.4308H701.483C694.634 81.4308 689.081 86.9833 689.081 93.8327V100.034C689.081 103.458 686.305 106.235 682.88 106.235ZM689.081 62.8279C689.081 66.2526 691.858 69.0288 695.282 69.0288H707.188C710.613 69.0288 713.389 66.2526 713.389 62.8279C713.389 59.4032 710.613 56.6269 707.188 56.6269H695.282C691.858 56.6269 689.081 59.4032 689.081 62.8279Z" fill="url(#paint1_radial_187_247)"/>
<path d="M636.372 56.6269C632.947 56.6269 630.171 53.8506 630.171 50.4259C630.171 47.0012 632.947 44.225 636.372 44.225H661.176C664.6 44.225 667.377 47.0012 667.377 50.4259C667.377 53.8506 664.6 56.6269 661.176 56.6269H636.372ZM661.176 93.8327C657.751 93.8327 654.975 91.0564 654.975 87.6317C654.975 84.207 652.198 81.4308 648.774 81.4308H636.372C632.947 81.4308 630.171 78.6545 630.171 75.2298C630.171 71.8051 627.394 69.0288 623.97 69.0288C620.545 69.0288 617.769 66.2526 617.769 62.8279C617.769 59.4032 620.545 56.6269 623.97 56.6269C627.394 56.6269 630.171 59.4032 630.171 62.8279C630.171 66.2526 632.947 69.0288 636.372 69.0288H648.774C652.198 69.0288 654.975 71.8051 654.975 75.2298C654.975 78.6545 657.751 81.4308 661.176 81.4308C664.6 81.4308 667.377 84.207 667.377 87.6317C667.377 91.0564 664.6 93.8327 661.176 93.8327ZM623.97 106.235C620.545 106.235 617.769 103.458 617.769 100.034C617.769 96.609 620.545 93.8327 623.97 93.8327H648.774C652.198 93.8327 654.975 96.609 654.975 100.034C654.975 103.458 652.198 106.235 648.774 106.235H623.97Z" fill="url(#paint2_radial_187_247)"/>
<path d="M565.059 106.235C561.634 106.235 558.858 103.458 558.858 100.034V62.8279C558.858 59.4032 561.634 56.6269 565.059 56.6269C568.484 56.6269 571.26 53.8506 571.26 50.4259C571.26 47.0012 574.036 44.225 577.461 44.225H589.863C593.288 44.225 596.064 47.0012 596.064 50.4259C596.064 53.8506 598.84 56.6269 602.265 56.6269C605.69 56.6269 608.466 59.4032 608.466 62.8279V100.034C608.466 103.458 605.69 106.235 602.265 106.235C598.84 106.235 596.064 103.458 596.064 100.034V93.8327C596.064 86.9833 590.511 81.4308 583.662 81.4308C576.813 81.4308 571.26 86.9833 571.26 93.8327V100.034C571.26 103.458 568.484 106.235 565.059 106.235ZM571.26 63.0759C571.26 66.3636 573.925 69.0288 577.213 69.0288H590.111C593.399 69.0288 596.064 66.3636 596.064 63.0759C596.064 59.7882 593.399 57.123 590.111 57.123H577.213C573.925 57.123 571.26 59.7882 571.26 63.0759Z" fill="url(#paint3_radial_187_247)"/>
<path d="M506.151 106.235C502.726 106.235 499.95 103.458 499.95 100.034C499.95 96.609 497.174 93.8327 493.749 93.8327C490.324 93.8327 487.548 91.0564 487.548 87.6317V50.4259C487.548 47.0012 490.324 44.225 493.749 44.225C497.174 44.225 499.95 47.0012 499.95 50.4259V87.6317C499.95 91.0564 502.726 93.8327 506.151 93.8327C509.575 93.8327 512.352 96.609 512.352 100.034C512.352 103.458 509.575 106.235 506.151 106.235ZM543.357 93.8327C539.932 93.8327 537.156 91.0564 537.156 87.6317V50.4259C537.156 47.0012 539.932 44.225 543.357 44.225C546.781 44.225 549.557 47.0012 549.557 50.4259V87.6317C549.557 91.0564 546.781 93.8327 543.357 93.8327ZM530.955 106.235C527.53 106.235 524.754 103.458 524.754 100.034C524.754 96.609 521.977 93.8327 518.553 93.8327C515.128 93.8327 512.352 91.0564 512.352 87.6317V62.8279C512.352 59.4032 515.128 56.6269 518.553 56.6269C521.977 56.6269 524.754 59.4032 524.754 62.8279V87.6317C524.754 91.0564 527.53 93.8327 530.955 93.8327C534.379 93.8327 537.156 96.609 537.156 100.034C537.156 103.458 534.379 106.235 530.955 106.235Z" fill="url(#paint4_radial_187_247)"/>
<path fill-rule="evenodd" clip-rule="evenodd" d="M778.307 45.9474C775.834 45.9474 773.828 47.9525 773.828 50.4259V87.6317C773.828 90.1051 775.834 92.1102 778.307 92.1102C780.78 92.1102 782.785 90.1051 782.785 87.6317V50.4259C782.785 47.9525 780.78 45.9474 778.307 45.9474ZM770.384 50.4259C770.384 46.0499 773.931 42.5024 778.307 42.5024C782.683 42.5024 786.23 46.0499 786.23 50.4259V87.6317C786.23 92.0077 782.683 95.5551 778.307 95.5551C773.931 95.5551 770.384 92.0077 770.384 87.6317V50.4259ZM812.41 45.9474C809.937 45.9474 807.932 47.9525 807.932 50.4259C807.932 52.8993 809.937 54.9044 812.41 54.9044H837.214C839.687 54.9044 841.692 52.8993 841.692 50.4259C841.692 47.9525 839.687 45.9474 837.214 45.9474H812.41ZM804.487 50.4259C804.487 46.0499 808.034 42.5024 812.41 42.5024H837.214C841.59 42.5024 845.137 46.0499 845.137 50.4259C845.137 54.8019 841.59 58.3494 837.214 58.3494H812.41C808.034 58.3494 804.487 54.8019 804.487 50.4259ZM800.008 58.3494C797.535 58.3494 795.53 60.3544 795.53 62.8278C795.53 65.3012 797.535 67.3063 800.008 67.3063C804.384 67.3063 807.932 70.8537 807.932 75.2297C807.932 77.7031 809.937 79.7082 812.41 79.7082H824.812C829.188 79.7082 832.736 83.2557 832.736 87.6317C832.736 90.1051 834.741 92.1102 837.214 92.1102C839.687 92.1102 841.692 90.1051 841.692 87.6317C841.692 85.1583 839.687 83.1532 837.214 83.1532C832.838 83.1532 829.291 79.6058 829.291 75.2298C829.291 72.7564 827.285 70.7513 824.812 70.7513H812.41C808.034 70.7513 804.487 67.2038 804.487 62.8278C804.487 60.3544 802.482 58.3494 800.008 58.3494ZM792.085 62.8278C792.085 58.4518 795.632 54.9044 800.008 54.9044C804.384 54.9044 807.932 58.4518 807.932 62.8278C807.932 65.3012 809.937 67.3063 812.41 67.3063H824.812C829.188 67.3063 832.736 70.8537 832.736 75.2298C832.736 77.7031 834.741 79.7082 837.214 79.7082C841.59 79.7082 845.137 83.2557 845.137 87.6317C845.137 92.0077 841.59 95.5551 837.214 95.5551C832.838 95.5551 829.291 92.0077 829.291 87.6317C829.291 85.1583 827.285 83.1532 824.812 83.1532H812.41C808.034 83.1532 804.487 79.6057 804.487 75.2297C804.487 72.7564 802.482 70.7513 800.008 70.7513C795.632 70.7513 792.085 67.2038 792.085 62.8278ZM741.101 83.1532C738.628 83.1532 736.623 85.1583 736.623 87.6317C736.623 90.1051 738.628 92.1102 741.101 92.1102C745.477 92.1102 749.025 95.6576 749.025 100.034C749.025 102.507 751.03 104.512 753.503 104.512H765.905C768.378 104.512 770.384 102.507 770.384 100.034C770.384 97.5602 768.378 95.5551 765.905 95.5551H753.503C749.127 95.5551 745.58 92.0077 745.58 87.6317C745.58 85.1583 743.575 83.1532 741.101 83.1532ZM733.178 87.6317C733.178 83.2557 736.725 79.7082 741.101 79.7082C745.477 79.7082 749.025 83.2557 749.025 87.6317C749.025 90.1051 751.03 92.1102 753.503 92.1102H765.905C770.281 92.1102 773.828 95.6576 773.828 100.034C773.828 104.41 770.281 107.957 765.905 107.957H753.503C749.127 107.957 745.58 104.41 745.58 100.034C745.58 97.5602 743.575 95.5551 741.101 95.5551C736.725 95.5551 733.178 92.0077 733.178 87.6317ZM800.008 95.5551C797.535 95.5551 795.53 97.5602 795.53 100.034C795.53 102.507 797.535 104.512 800.008 104.512H824.812C827.285 104.512 829.291 102.507 829.291 100.034C829.291 97.5602 827.285 95.5551 824.812 95.5551H800.008ZM792.085 100.034C792.085 95.6576 795.632 92.1102 800.008 92.1102H824.812C829.188 92.1102 832.736 95.6576 832.736 100.034C832.736 104.41 829.188 107.957 824.812 107.957H800.008C795.632 107.957 792.085 104.41 792.085 100.034Z" fill="url(#paint5_radial_187_247)"/>
</g>
<path fill-rule="evenodd" clip-rule="evenodd" d="M357.685 65.1246C353.993 71.5198 353.993 79.3992 357.685 85.7945L373.597 113.354C377.289 119.75 384.113 123.689 391.498 123.689H423.321C430.706 123.689 437.529 119.75 441.222 113.354L457.133 85.7945C460.826 79.3992 460.826 71.5198 457.133 65.1246L441.222 37.5647C437.529 31.1694 430.706 27.2297 423.321 27.2297H391.498C384.113 27.2297 377.289 31.1694 373.597 37.5647L357.685 65.1246ZM397.468 36.2455C394.722 36.2455 392.496 38.4717 392.496 41.2179V43.7041C392.496 45.0772 393.609 46.1903 394.982 46.1903C396.355 46.1903 397.468 47.3034 397.468 48.6765V51.1627C397.468 53.9089 395.242 56.1351 392.496 56.1351H382.551C379.805 56.1351 377.579 58.3613 377.579 61.1075C377.579 63.8537 375.353 66.0799 372.606 66.0799C369.86 66.0799 367.634 68.3061 367.634 71.0523V76.0247C367.634 81.5171 372.086 85.9695 377.579 85.9695H382.551C385.297 85.9695 387.524 83.7433 387.524 80.9971C387.524 78.251 389.75 76.0247 392.496 76.0247C395.242 76.0247 397.468 78.251 397.468 80.9971V83.4833C397.468 84.8564 398.582 85.9695 399.955 85.9695C401.328 85.9695 402.441 87.0827 402.441 88.4558C402.441 89.8288 401.328 90.942 399.955 90.942C398.582 90.942 397.468 92.0551 397.468 93.4282V108.345C397.468 109.718 398.582 110.832 399.955 110.832C401.328 110.832 402.441 111.945 402.441 113.318C402.441 114.691 403.554 115.804 404.927 115.804H409.899C411.272 115.804 412.386 114.691 412.386 113.318C412.386 111.945 413.499 110.832 414.872 110.832C416.245 110.832 417.358 109.718 417.358 108.345V93.4282C417.358 92.0551 416.245 90.942 414.872 90.942C413.499 90.942 412.386 89.8288 412.386 88.4558C412.386 87.0827 413.499 85.9695 414.872 85.9695C416.245 85.9695 417.358 84.8564 417.358 83.4833V80.9971C417.358 78.251 419.584 76.0247 422.33 76.0247C425.077 76.0247 427.303 78.251 427.303 80.9971C427.303 83.7433 429.529 85.9695 432.275 85.9695H437.248C442.74 85.9695 447.192 81.5171 447.192 76.0247V71.0523C447.192 68.3061 444.966 66.0799 442.22 66.0799C439.474 66.0799 437.248 63.8537 437.248 61.1075C437.248 58.3613 435.021 56.1351 432.275 56.1351H422.33C419.584 56.1351 417.358 53.9089 417.358 51.1627V48.6765C417.358 47.3034 418.471 46.1903 419.844 46.1903C421.217 46.1903 422.33 45.0772 422.33 43.7041V41.2179C422.33 38.4717 420.104 36.2455 417.358 36.2455C414.612 36.2455 412.386 38.4717 412.386 41.2179C412.386 43.9641 410.159 46.1903 407.413 46.1903C404.667 46.1903 402.441 43.9641 402.441 41.2179C402.441 38.4717 400.215 36.2455 397.468 36.2455Z" fill="white"/>
<path d="M682.797 106.464C679.372 106.464 676.596 103.688 676.596 100.263V63.0576C676.596 52.7835 684.924 44.4547 695.199 44.4547H707.6C711.025 44.4547 713.801 47.231 713.801 50.6557C713.801 54.0804 716.578 56.8567 720.002 56.8567C723.427 56.8567 726.203 59.6329 726.203 63.0576C726.203 66.4823 723.427 69.2586 720.002 69.2586C716.578 69.2586 713.801 72.0349 713.801 75.4596C713.801 78.8843 711.025 81.6605 707.6 81.6605H701.4C694.55 81.6605 688.998 87.2131 688.998 94.0625V100.263C688.998 103.688 686.221 106.464 682.797 106.464ZM688.998 63.0576C688.998 66.4823 691.774 69.2586 695.199 69.2586H707.104C710.529 69.2586 713.305 66.4823 713.305 63.0576C713.305 59.6329 710.529 56.8567 707.104 56.8567H695.199C691.774 56.8567 688.998 59.6329 688.998 63.0576Z" fill="white"/>
<path d="M636.288 56.8567C632.863 56.8567 630.087 54.0804 630.087 50.6557C630.087 47.231 632.863 44.4547 636.288 44.4547H661.092C664.516 44.4547 667.293 47.231 667.293 50.6557C667.293 54.0804 664.516 56.8567 661.092 56.8567H636.288ZM661.092 94.0625C657.667 94.0625 654.891 91.2862 654.891 87.8615C654.891 84.4368 652.115 81.6605 648.69 81.6605H636.288C632.863 81.6605 630.087 78.8843 630.087 75.4596C630.087 72.0349 627.311 69.2586 623.886 69.2586C620.461 69.2586 617.685 66.4823 617.685 63.0576C617.685 59.6329 620.461 56.8567 623.886 56.8567C627.311 56.8567 630.087 59.6329 630.087 63.0576C630.087 66.4823 632.863 69.2586 636.288 69.2586H648.69C652.115 69.2586 654.891 72.0349 654.891 75.4596C654.891 78.8843 657.667 81.6605 661.092 81.6605C664.516 81.6605 667.293 84.4368 667.293 87.8615C667.293 91.2862 664.516 94.0625 661.092 94.0625ZM623.886 106.464C620.461 106.464 617.685 103.688 617.685 100.263C617.685 96.8388 620.461 94.0625 623.886 94.0625H648.69C652.115 94.0625 654.891 96.8388 654.891 100.263C654.891 103.688 652.115 106.464 648.69 106.464H623.886Z" fill="white"/>
<path d="M564.975 106.464C561.551 106.464 558.774 103.688 558.774 100.263V63.0576C558.774 59.6329 561.551 56.8567 564.975 56.8567C568.4 56.8567 571.176 54.0804 571.176 50.6557C571.176 47.231 573.953 44.4547 577.377 44.4547H589.779C593.204 44.4547 595.98 47.231 595.98 50.6557C595.98 54.0804 598.756 56.8567 602.181 56.8567C605.606 56.8567 608.382 59.6329 608.382 63.0576V100.263C608.382 103.688 605.606 106.464 602.181 106.464C598.756 106.464 595.98 103.688 595.98 100.263V94.0625C595.98 87.2131 590.428 81.6605 583.578 81.6605C576.729 81.6605 571.176 87.2131 571.176 94.0625V100.263C571.176 103.688 568.4 106.464 564.975 106.464ZM571.176 63.3057C571.176 66.5934 573.841 69.2586 577.129 69.2586H590.027C593.315 69.2586 595.98 66.5934 595.98 63.3057C595.98 60.0179 593.315 57.3527 590.027 57.3527H577.129C573.841 57.3527 571.176 60.0179 571.176 63.3057Z" fill="white"/>
<path d="M506.067 106.464C502.642 106.464 499.866 103.688 499.866 100.263C499.866 96.8388 497.09 94.0625 493.665 94.0625C490.24 94.0625 487.464 91.2862 487.464 87.8615V50.6557C487.464 47.231 490.24 44.4547 493.665 44.4547C497.09 44.4547 499.866 47.231 499.866 50.6557V87.8615C499.866 91.2862 502.642 94.0625 506.067 94.0625C509.491 94.0625 512.268 96.8388 512.268 100.263C512.268 103.688 509.491 106.464 506.067 106.464ZM543.273 94.0625C539.848 94.0625 537.072 91.2862 537.072 87.8615V50.6557C537.072 47.231 539.848 44.4547 543.273 44.4547C546.697 44.4547 549.474 47.231 549.474 50.6557V87.8615C549.474 91.2862 546.697 94.0625 543.273 94.0625ZM530.871 106.464C527.446 106.464 524.67 103.688 524.67 100.263C524.67 96.8388 521.893 94.0625 518.469 94.0625C515.044 94.0625 512.268 91.2862 512.268 87.8615V63.0576C512.268 59.6329 515.044 56.8567 518.469 56.8567C521.893 56.8567 524.67 59.6329 524.67 63.0576V87.8615C524.67 91.2862 527.446 94.0625 530.871 94.0625C534.295 94.0625 537.072 96.8388 537.072 100.263C537.072 103.688 534.295 106.464 530.871 106.464Z" fill="white"/>
<path fill-rule="evenodd" clip-rule="evenodd" d="M778.223 46.1772C775.75 46.1772 773.745 48.1822 773.745 50.6556V87.8615C773.745 90.3349 775.75 92.3399 778.223 92.3399C780.696 92.3399 782.702 90.3349 782.702 87.8615V50.6556C782.702 48.1822 780.696 46.1772 778.223 46.1772ZM770.3 50.6556C770.3 46.2796 773.847 42.7322 778.223 42.7322C782.599 42.7322 786.147 46.2796 786.147 50.6556V87.8615C786.147 92.2375 782.599 95.7849 778.223 95.7849C773.847 95.7849 770.3 92.2375 770.3 87.8615V50.6556ZM812.326 46.1772C809.853 46.1772 807.848 48.1822 807.848 50.6556C807.848 53.129 809.853 55.1341 812.326 55.1341H837.13C839.604 55.1341 841.609 53.129 841.609 50.6556C841.609 48.1822 839.604 46.1772 837.13 46.1772H812.326ZM804.403 50.6556C804.403 46.2796 807.95 42.7322 812.326 42.7322H837.13C841.506 42.7322 845.054 46.2796 845.054 50.6556C845.054 55.0316 841.506 58.5791 837.13 58.5791H812.326C807.95 58.5791 804.403 55.0316 804.403 50.6556ZM799.924 58.5791C797.451 58.5791 795.446 60.5842 795.446 63.0576C795.446 65.531 797.451 67.5361 799.924 67.5361C804.3 67.5361 807.848 71.0835 807.848 75.4595C807.848 77.9329 809.853 79.938 812.326 79.938H824.728C829.104 79.938 832.652 83.4855 832.652 87.8615C832.652 90.3349 834.657 92.3399 837.13 92.3399C839.604 92.3399 841.609 90.3349 841.609 87.8615C841.609 85.3881 839.604 83.383 837.13 83.383C832.754 83.383 829.207 79.8355 829.207 75.4595C829.207 72.9861 827.202 70.981 824.728 70.981H812.326C807.95 70.981 804.403 67.4336 804.403 63.0576C804.403 60.5842 802.398 58.5791 799.924 58.5791ZM792.001 63.0576C792.001 58.6816 795.548 55.1341 799.924 55.1341C804.3 55.1341 807.848 58.6816 807.848 63.0576C807.848 65.531 809.853 67.5361 812.326 67.5361H824.728C829.104 67.5361 832.652 71.0835 832.652 75.4595C832.652 77.9329 834.657 79.938 837.13 79.938C841.506 79.938 845.054 83.4855 845.054 87.8615C845.054 92.2375 841.506 95.7849 837.13 95.7849C832.754 95.7849 829.207 92.2375 829.207 87.8615C829.207 85.3881 827.202 83.383 824.728 83.383H812.326C807.95 83.383 804.403 79.8355 804.403 75.4595C804.403 72.9861 802.398 70.981 799.924 70.981C795.548 70.981 792.001 67.4336 792.001 63.0576ZM741.017 83.383C738.544 83.383 736.539 85.3881 736.539 87.8615C736.539 90.3349 738.544 92.3399 741.017 92.3399C745.393 92.3399 748.941 95.8874 748.941 100.263C748.941 102.737 750.946 104.742 753.419 104.742H765.821C768.294 104.742 770.3 102.737 770.3 100.263C770.3 97.79 768.294 95.7849 765.821 95.7849H753.419C749.043 95.7849 745.496 92.2375 745.496 87.8615C745.496 85.3881 743.491 83.383 741.017 83.383ZM733.094 87.8615C733.094 83.4855 736.641 79.938 741.017 79.938C745.393 79.938 748.941 83.4855 748.941 87.8615C748.941 90.3349 750.946 92.3399 753.419 92.3399H765.821C770.197 92.3399 773.745 95.8874 773.745 100.263C773.745 104.639 770.197 108.187 765.821 108.187H753.419C749.043 108.187 745.496 104.639 745.496 100.263C745.496 97.79 743.491 95.7849 741.017 95.7849C736.641 95.7849 733.094 92.2375 733.094 87.8615ZM799.924 95.7849C797.451 95.7849 795.446 97.79 795.446 100.263C795.446 102.737 797.451 104.742 799.924 104.742H824.728C827.202 104.742 829.207 102.737 829.207 100.263C829.207 97.79 827.202 95.7849 824.728 95.7849H799.924ZM792.001 100.263C792.001 95.8874 795.548 92.3399 799.924 92.3399H824.728C829.104 92.3399 832.652 95.8874 832.652 100.263C832.652 104.639 829.104 108.187 824.728 108.187H799.924C795.548 108.187 792.001 104.639 792.001 100.263Z" fill="white"/>
<defs>
<filter id="filter0_f_187_247" x="351" y="23" width="498.138" height="104.459" filterUnits="userSpaceOnUse" color-interpolation-filters="sRGB">
<feFlood flood-opacity="0" result="BackgroundImageFix"/>
<feBlend mode="normal" in="SourceGraphic" in2="BackgroundImageFix" result="shape"/>
<feGaussianBlur stdDeviation="2" result="effect1_foregroundBlur_187_247"/>
</filter>
<filter id="filter1_f_187_247" x="339" y="11" width="522.138" height="128.459" filterUnits="userSpaceOnUse" color-interpolation-filters="sRGB">
<feFlood flood-opacity="0" result="BackgroundImageFix"/>
<feBlend mode="normal" in="SourceGraphic" in2="BackgroundImageFix" result="shape"/>
<feGaussianBlur stdDeviation="8" result="effect1_foregroundBlur_187_247"/>
</filter>
<radialGradient id="paint0_radial_187_247" cx="0" cy="0" r="1" gradientUnits="userSpaceOnUse" gradientTransform="translate(368.387 139) rotate(-58.7467) scale(168.444 238.048)">
<stop stop-color="#FF6EC7"/>
<stop offset="0.25" stop-color="#D9FF00"/>
<stop offset="0.5" stop-color="#00C4FF"/>
<stop offset="0.75" stop-color="#39FF14"/>
<stop offset="1" stop-color="#FF00FF"/>
</radialGradient>
<radialGradient id="paint1_radial_187_247" cx="0" cy="0" r="1" gradientUnits="userSpaceOnUse" gradientTransform="translate(517.991 116.225) rotate(-24.9767) scale(219.234 267.373)">
<stop stop-color="#FF6EC7"/>
<stop offset="0.25" stop-color="#D9FF00"/>
<stop offset="0.5" stop-color="#00C4FF"/>
<stop offset="0.75" stop-color="#39FF14"/>
<stop offset="1" stop-color="#FF00FF"/>
</radialGradient>
<radialGradient id="paint2_radial_187_247" cx="0" cy="0" r="1" gradientUnits="userSpaceOnUse" gradientTransform="translate(517.991 116.225) rotate(-24.9767) scale(219.234 267.373)">
<stop stop-color="#FF6EC7"/>
<stop offset="0.25" stop-color="#D9FF00"/>
<stop offset="0.5" stop-color="#00C4FF"/>
<stop offset="0.75" stop-color="#39FF14"/>
<stop offset="1" stop-color="#FF00FF"/>
</radialGradient>
<radialGradient id="paint3_radial_187_247" cx="0" cy="0" r="1" gradientUnits="userSpaceOnUse" gradientTransform="translate(517.991 116.225) rotate(-24.9767) scale(219.234 267.373)">
<stop stop-color="#FF6EC7"/>
<stop offset="0.25" stop-color="#D9FF00"/>
<stop offset="0.5" stop-color="#00C4FF"/>
<stop offset="0.75" stop-color="#39FF14"/>
<stop offset="1" stop-color="#FF00FF"/>
</radialGradient>
<radialGradient id="paint4_radial_187_247" cx="0" cy="0" r="1" gradientUnits="userSpaceOnUse" gradientTransform="translate(517.991 116.225) rotate(-24.9767) scale(219.234 267.373)">
<stop stop-color="#FF6EC7"/>
<stop offset="0.25" stop-color="#D9FF00"/>
<stop offset="0.5" stop-color="#00C4FF"/>
<stop offset="0.75" stop-color="#39FF14"/>
<stop offset="1" stop-color="#FF00FF"/>
</radialGradient>
<radialGradient id="paint5_radial_187_247" cx="0" cy="0" r="1" gradientUnits="userSpaceOnUse" gradientTransform="translate(747.454 118.502) rotate(-46.3553) scale(135.033 214.885)">
<stop stop-color="#FF6EC7"/>
<stop offset="0.25" stop-color="#D9FF00"/>
<stop offset="0.5" stop-color="#00C4FF"/>
<stop offset="0.75" stop-color="#39FF14"/>
<stop offset="1" stop-color="#FF00FF"/>
</radialGradient>
</defs>
</svg>
